<svg width="16" height="16" viewBox="0 0 16 16" fill="none" xmlns="http://www.w3.org/2000/svg">
<path d="M13.7187 8.6375C14.5616 7.79461 15.0351 6.6514 15.0351 5.45938C15.0351 4.26735 14.5616 3.12414 13.7187 2.28125C12.8758 1.43836 11.7326 0.964829 10.5406 0.964828C9.34855 0.964828 8.20534 1.43836 7.36245 2.28125L7.3187 2.31875L7.2812 2.3625C6.4593 3.19992 5.99919 4.32664 5.99995 5.5C5.99877 5.66077 6.00712 5.82147 6.02495 5.98125L1.34995 12.3563C1.20837 12.5491 1.14061 12.7863 1.15895 13.0248C1.1773 13.2633 1.28055 13.4873 1.44995 13.6563L2.3437 14.55C2.51261 14.7194 2.73665 14.8227 2.97516 14.841C3.21368 14.8594 3.45088 14.7916 3.6437 14.65L10.0187 9.975C10.1785 9.99284 10.3392 10.0012 10.5 10C11.6733 10.0008 12.8 9.54065 13.6375 8.71875L13.6812 8.68125L13.7187 8.6375ZM14 5.5C14.0009 6.25553 13.7551 6.99069 13.3 7.59375L8.4062 2.7C8.92559 2.30936 9.54365 2.07134 10.1909 2.01269C10.8381 1.95403 11.4889 2.07707 12.0701 2.36797C12.6512 2.65887 13.1397 3.10611 13.4806 3.6594C13.8216 4.21269 14.0014 4.85011 14 5.5ZM3.04995 13.8438L2.1562 12.95L6.34995 7.2375C6.80741 8.3264 7.67355 9.19254 8.76245 9.65L3.04995 13.8438ZM6.99995 5.5C6.99904 4.74448 7.24483 4.00931 7.69995 3.40625L12.5937 8.3C12.0743 8.69064 11.4563 8.92866 10.809 8.98732C10.1618 9.04597 9.511 8.92293 8.92985 8.63203C8.34869 8.34113 7.8602 7.8939 7.51927 7.34061C7.17834 6.78731 6.9985 6.1499 6.99995 5.5Z" fill="#F2F2F2"/>
<ellipse cx="10.5312" cy="5.5" rx="3.53125" ry="3.5" fill="#0D0D0D"/>
</svg>
