<svg width="30" height="30" viewBox="0 0 30 30" fill="none" xmlns="http://www.w3.org/2000/svg">
<path d="M30 15C30 23.2843 23.2843 30 15 30C6.71573 30 0 23.2843 0 15C0 6.71573 6.71573 0 15 0C23.2843 0 30 6.71573 30 15ZM12.7324 9.54963C12.4466 9.34551 12.0708 9.31822 11.7585 9.47891C11.4463 9.6396 11.25 9.96133 11.25 10.3125V19.6875C11.25 20.0387 11.4463 20.3604 11.7585 20.5211C12.0708 20.6818 12.4466 20.6545 12.7324 20.4504L19.2949 15.7629C19.5413 15.5869 19.6875 15.3028 19.6875 15C19.6875 14.6972 19.5413 14.4131 19.2949 14.2371L12.7324 9.54963Z" fill="#F2F2F2"/>
</svg>
